<svg xmlns="http://www.w3.org/2000/svg" viewBox="0 0 100.354 100.352"><path d="M96.364 39.436a4.399 4.399 0 0 0-3.574-3.013l-26.672-3.876L54.19 8.378a4.4 4.4 0 0 0-3.97-2.468 4.403 4.403 0 0 0-3.971 2.468L34.321 32.547 7.649 36.423c-1.681.244-3.05 1.398-3.575 3.013s-.095 3.354 1.121 4.54l19.3 18.813-4.575 26.677a4.405 4.405 0 0 0 1.734 4.311c.78.576 1.7.87 2.626.87.682 0 1.367-.159 2.003-.481l24.49-12.395 23.302 12.25a4.396 4.396 0 0 0 4.663-.337 4.4 4.4 0 0 0 1.762-4.331l-4.557-26.564 19.3-18.812a4.403 4.403 0 0 0 1.121-4.541zm-3.214 2.392L72.72 61.742l4.823 28.118a1.403 1.403 0 0 1-.568 1.397 1.394 1.394 0 0 1-1.503.109L50.8 78.395 24.929 91.489a1.404 1.404 0 0 1-1.493-.125 1.403 1.403 0 0 1-.559-1.39l4.842-28.231-20.43-19.914a1.4 1.4 0 0 1-.361-1.464 1.403 1.403 0 0 1 1.153-.972l28.233-4.103L48.94 9.707a1.4 1.4 0 0 1 1.28-.796 1.4 1.4 0 0 1 1.28.796L64.126 35.29l28.233 4.103c.55.08.98.443 1.152.972s.037 1.075-.361 1.463z"/></svg>